<?xml version="1.0" standalone="no"?>
<!DOCTYPE svg PUBLIC "-//W3C//DTD SVG 20010904//EN"
 "http://www.w3.org/TR/2001/REC-SVG-20010904/DTD/svg10.dtd">
<svg version="1.0" xmlns="http://www.w3.org/2000/svg"
 width="128.000000pt" height="128.000000pt" viewBox="0 0 128.000000 128.000000"
 preserveAspectRatio="xMidYMid meet">
<metadata>
Created by potrace 1.14, written by Peter Selinger 2001-2017
</metadata>
<g transform="translate(0.000000,128.000000) scale(0.100000,-0.100000)"
fill="#000000" stroke="none">
<path d="M164 857 c13 -19 15 -60 13 -226 -2 -188 -3 -204 -21 -217 -18 -13
-15 -14 32 -14 l51 0 -24 24 c-23 23 -24 27 -25 225 0 110 2 201 4 201 5 0
127 -183 245 -367 29 -46 59 -83 67 -83 12 0 14 37 15 208 1 114 1 211 0 216
-1 4 5 19 14 32 l15 24 -46 0 -46 0 23 -19 c23 -18 24 -25 26 -165 1 -80 1
-146 -1 -146 -2 0 -52 74 -111 165 l-107 165 -69 0 -69 0 14 -23z"/>
<path d="M750 871 c0 -5 6 -11 13 -13 9 -4 12 -56 14 -209 2 -169 -1 -208 -13
-228 l-16 -23 124 4 c98 3 131 7 162 23 55 28 81 66 80 118 -1 34 -7 46 -35
70 -19 15 -54 33 -78 39 l-45 11 47 14 c119 35 114 159 -8 192 -49 13 -245 15
-245 2z m213 -12 c33 -15 46 -47 43 -105 -3 -60 -30 -84 -92 -84 l-44 0 0 100
0 100 35 0 c19 0 45 -5 58 -11z m21 -223 c26 -17 45 -77 39 -126 -7 -66 -47
-100 -119 -100 l-34 0 0 124 0 125 46 -4 c25 -2 56 -10 68 -19z"/>
<path d="M623 480 c-31 -13 -32 -65 -2 -81 50 -26 93 35 53 75 -17 18 -20 18
-51 6z"/>
</g>
</svg>
